<?xml version="1.0" standalone="no"?>
<!DOCTYPE svg PUBLIC "-//W3C//DTD SVG 1.1//EN" "http://www.w3.org/Graphics/SVG/1.1/DTD/svg11.dtd" >
<svg xmlns="http://www.w3.org/2000/svg">
<metadata>Generated by IcoMoon</metadata>
<defs>
<font id="icomoon" horiz-adv-x="1024">
<font-face units-per-em="1024" ascent="960" descent="-64" />
<missing-glyph horiz-adv-x="1024" />
<glyph unicode="&#x20;" horiz-adv-x="512" d="" />
<glyph unicode="&#xe900;" glyph-name="Icon-001" d="M512 618.667c164.949 0 298.667 38.229 298.667 85.333s-133.717 85.333-298.667 85.333c-164.949 0-298.667-38.229-298.667-85.333s133.717-85.333 298.667-85.333zM213.333 635.665v-102.315c0-47.104 133.717-85.333 298.667-85.333s298.667 38.229 298.667 85.333v102.315c-85.291-57.344-271.829-59.648-298.667-59.648s-213.376 2.304-298.667 59.648zM213.333 464.998v-102.315c0-47.104 133.717-85.333 298.667-85.333s298.667 38.229 298.667 85.333v102.315c-85.291-57.344-271.829-59.648-298.667-59.648s-213.376 2.304-298.667 59.648zM213.333 294.332v-102.315c0-47.104 133.717-85.333 298.667-85.333s298.667 38.229 298.667 85.333v102.315c-85.291-57.344-271.829-59.648-298.667-59.648s-213.376 2.304-298.667 59.648z" />
<glyph unicode="&#xe901;" glyph-name="Icon-002" d="M694.084 362.667h-128l-85.333 384h-42.667l42.667-384h-128c-23.467 0-36.608-18.261-29.184-40.491l58.368-175.104c7.424-22.229 32.683-40.405 56.149-40.405h170.667c23.467 0 48.725 18.176 56.149 40.405l58.368 175.104c7.424 22.229-5.717 40.491-29.184 40.491zM847.77 789.333c-256 0-298.667-170.667-298.667-256l170.667 128-113.365-151.168c124.971-24.661 278.101 95.403 241.365 279.168zM298.667 548.501l128-85.333c0 170.667-213.333 170.667-256 170.667 33.28-133.163 118.485-188.16 194.901-185.771l-66.901 100.437z" />
<glyph unicode="&#xe902;" glyph-name="Icon-003" d="M361.6 254.933c-11.179-11.179-29.355-11.179-40.533 0-5.717 5.76-8.789 13.568-8.363 21.675 0.384 8.064 4.224 15.659 10.496 20.736l444.8 363.989-406.4-406.4zM249.472 221.44l-78.805-84.608 30.165-30.165 81.963 76.331c447.232-146.304 570.539 229.76 570.539 606.336-250.923-209.067-706.347-90.752-603.861-567.893v0z" />
<glyph unicode="&#xe903;" glyph-name="Icon-004" d="M594.889 395.925l44.629-14.421c11.179-3.627 20.309 3.029 20.309 14.763l0.085 46.891c0 11.733 9.131 24.32 20.309 27.947l44.544 14.549c11.179 3.627 14.677 14.379 7.808 23.893l-27.52 37.973c-6.869 9.472-6.869 25.088 0 34.56l27.52 37.973c6.869 9.515 3.371 20.267-7.808 23.893l-44.544 14.549c-11.179 3.627-20.309 16.213-20.309 27.947l-0.085 46.891c0 11.733-9.131 18.347-20.309 14.763l-44.629-14.421c-11.179-3.584-25.941 1.195-32.853 10.667l-27.605 37.888c-6.912 9.472-18.176 9.472-25.088 0l-27.648-37.888c-6.912-9.472-21.675-14.251-32.853-10.667l-44.629 14.421c-11.136 3.584-20.309-3.029-20.309-14.763l-0.085-46.891c0-11.733-9.131-24.32-20.267-27.947l-44.587-14.549c-11.179-3.627-14.677-14.379-7.765-23.893l27.52-38.016c6.869-9.472 6.869-25.003 0-34.517l-27.52-37.973c-6.912-9.515-3.413-20.267 7.765-23.893l44.587-14.549c11.136-3.627 20.267-16.213 20.267-27.947l0.085-46.891c0-11.733 9.173-18.389 20.309-14.763l44.629 14.421c11.179 3.584 25.941-1.195 32.853-10.667l27.648-37.888c6.912-9.472 18.176-9.472 25.088 0l27.605 37.888c6.912 9.472 21.675 14.251 32.853 10.667zM437.931 309.675l-12.885 17.664-20.821-6.741c-8.363-2.688-16.981-4.096-25.6-4.096-36.309 0-65.835 24.149-75.051 57.643l-132.907-139.477h128v-128l166.571 179.115c-10.496 5.675-19.84 13.653-27.307 23.893zM703.68 391.467c-2.432-42.325-35.584-74.965-77.909-74.965-8.576 0-17.195 1.408-25.6 4.096l-20.821 6.741-12.885-17.707c-4.523-6.187-9.899-11.392-15.701-15.957l174.592-187.008v128h128l-149.675 156.8z" />
<glyph unicode="&#xe904;" glyph-name="Icon-005" d="M693.504 351.829c-20.565-35.328-50.005-64.768-85.333-85.333-34.688-20.096-74.667-31.829-117.504-31.829-129.408 0-234.667 105.301-234.667 234.667 0 129.408 105.259 234.667 234.667 234.667s234.667-105.259 234.667-234.667c0-42.837-11.733-82.859-31.829-117.504zM840.917 204.459l-85.419 85.333c34.859 51.2 55.168 112.981 55.168 179.541 0 176.768-143.232 320-320 320-176.725 0-320-143.232-320-320 0-176.725 143.275-320 320-320 66.603 0 128.341 20.352 179.499 55.125l85.419-85.333c16.597-16.597 43.733-16.597 60.331 0l25.003 25.003c16.597 16.597 16.597 43.733 0 60.331zM549.837 372.186l-0.512 45.525c0 0 17.835 13.653 23.339 56.491 11.179-3.243 22.827 16.555 23.424 27.008 0.683 10.069-1.579 37.973-15.104 35.157 2.859 20.949 4.779 39.851 3.755 49.877-3.072 31.659-30.464 64.768-73.813 73.045-5.248 0.597-10.411 1.493-15.829 1.621-1.493 0.043-2.944 0.427-4.437 0.427-0.171 0-0.256-0.043-0.341-0.043-0.128 0-0.213 0.043-0.384 0.043-7.68 0-14.933-0.896-21.845-2.261-42.837-8.576-70.016-41.387-73.088-72.832-0.896-10.027 1.067-28.928 3.755-49.877-13.483 2.816-15.659-25.088-15.104-35.157 0.683-10.453 12.288-30.251 23.424-27.008 5.504-42.837 23.339-56.491 23.339-56.491l-0.427-45.525c0 0-11.307-6.869-58.667-26.624-6.571-2.731-13.141-5.376-19.669-7.936 35.029-36.907 84.181-60.288 139.008-60.288 54.613 0 103.68 23.168 138.667 59.861-6.912 2.731-13.824 5.461-20.821 8.363-47.403 19.755-58.667 26.624-58.667 26.624z" />
<glyph unicode="&#xe905;" glyph-name="Icon-006" d="M672.889 320c0-47.104-38.229-85.333-85.333-85.333-47.147 0-85.333 38.229-85.333 85.333v42.667c0 47.104 38.187 85.333 85.333 85.333h42.667v-42.667h-42.667c-23.509 0-42.667-19.115-42.667-42.667v-42.667c0-23.509 19.072-42.667 42.667-42.667 23.509 0 42.667 19.115 42.667 42.667h-42.667v42.667h85.333v-42.667zM500.046 234.667h-60.331l-65.493 65.493v-65.493h-42.667v213.333h42.667v-65.493l65.493 65.493h60.331l-106.667-106.667 106.667-106.667zM502.222 746.667c47.104 0 85.333-38.272 85.333-85.333s-38.229-85.333-85.333-85.333c-47.104 0-85.333 38.272-85.333 85.333s38.229 85.333 85.333 85.333v0zM832.292 147.84l-105.472 386.987c-6.272 22.656-30.507 41.173-53.931 41.173h-75.904c20.395 22.656 33.237 52.437 33.237 85.333 0 70.699-57.344 128-128 128s-128-57.301-128-128c0-32.896 12.757-62.677 33.152-85.333h-75.819c-23.509 0-47.744-18.517-53.931-41.173l-105.472-386.987c-6.272-22.656 7.893-41.173 31.403-41.173h597.333c23.424 0 37.589 18.517 31.403 41.173v0z" />
<glyph unicode="&#xe906;" glyph-name="Icon-007" d="M554.667 405.333c-47.104 0-85.333 38.272-85.333 85.333s38.229 85.333 85.333 85.333c47.104 0 85.333-38.272 85.333-85.333s-38.229-85.333-85.333-85.333zM768 405.333c-19.157 0-36.651-6.571-50.901-17.237l-51.029 40.747c10.283 18.389 16.597 39.296 16.597 61.824 0 27.605-8.917 53.035-23.851 73.984l66.091 66.091c12.672-7.509 27.349-12.075 43.093-12.075 47.104 0 85.333 38.229 85.333 85.333s-38.229 85.333-85.333 85.333c-47.104 0-85.333-38.229-85.333-85.333 0-15.787 4.565-30.421 12.075-43.093l-66.091-66.091c-20.907 14.891-46.336 23.851-73.984 23.851-45.099 0-84.565-23.509-107.435-58.752l-107.136 45.909c0.555 4.267 1.237 8.448 1.237 12.843 0 47.104-38.229 85.333-85.333 85.333s-85.333-38.229-85.333-85.333c0-47.104 38.229-85.333 85.333-85.333 27.435 0 51.584 13.227 67.157 33.323l107.435-45.995c-2.347-9.643-3.925-19.627-3.925-29.995 0-27.605 9.003-53.035 23.851-73.984l-151.424-151.424c-12.672 7.509-27.264 12.075-43.093 12.075-47.104 0-85.333-38.229-85.333-85.333s38.229-85.333 85.333-85.333c47.104 0 85.333 38.229 85.333 85.333 0 15.787-4.565 30.421-12.075 43.093l151.424 151.424c15.403-10.923 33.237-18.432 52.651-21.675v-90.496c-36.736-9.515-64-42.581-64-82.347 0-47.147 38.187-85.333 85.333-85.333s85.333 38.187 85.333 85.333c0 39.765-27.264 72.832-64 82.347v90.496c24.235 4.053 45.909 14.976 63.488 30.677l50.773-40.704c-4.779-10.667-7.595-22.4-7.595-34.816 0-47.104 38.229-85.333 85.333-85.333s85.333 38.229 85.333 85.333c0 47.104-38.229 85.333-85.333 85.333z" />
<glyph unicode="&#xe907;" glyph-name="Icon-008" d="M713.131 341.376l103.595 103.595-98.901 98.859c-3.712-14.080-10.752-27.477-21.803-38.485-33.323-33.323-87.339-33.323-120.661 0-33.323 33.28-33.323 87.339 0 120.661 11.051 11.008 24.491 18.091 38.528 21.803l-98.901 98.859-100.224-100.267c-4.053 12.331-10.624 24.021-20.437 33.835-33.323 33.365-87.339 33.365-120.661 0-33.323-33.323-33.323-87.339 0-120.661 9.813-9.813 21.504-16.384 33.835-20.395l-94.165-94.165 98.859-98.944c3.712 14.080 10.752 27.52 21.803 38.571 33.365 33.28 87.339 33.28 120.661 0 33.365-33.365 33.365-87.381 0-120.661-11.008-11.051-24.405-18.133-38.485-21.803l98.816-98.944 97.536 97.536c3.2-15.829 10.88-30.976 23.168-43.264 33.323-33.323 87.339-33.28 120.661 0 33.323 33.323 33.365 87.381 0.043 120.704-12.288 12.288-27.392 19.968-43.264 23.168z" />
<glyph unicode="&#xe908;" glyph-name="Icon-009" d="M725.333 746.667c-118.187-127.915-202.24-249.557-287.915-409.003-52.651 68.565-95.019 113.323-138.752 153.003h-128c99.925-116.907 153.685-206.549 256-384h85.333c81.92 223.36 156.587 380.672 341.333 640h-128z" />
<glyph unicode="&#xe909;" glyph-name="Icon-010" d="M298.667 789.333v-42.667h-128v-640h682.709v640h-298.709v42.667h-256zM554.667 704h256.043v-554.667h-597.376v554.667h85.333v-256l128.043 128 127.957-128v256zM298.679 191.991h341.333v42.667h-341.333v-42.667zM298.679 277.325h426.667v42.709h-426.667v-42.709zM298.679 362.658h426.667v42.667h-426.667v-42.667zM640.013 447.991h85.333v42.667h-85.333v-42.667zM640.013 533.325h85.333v42.667h-85.333v-42.667z" />
<glyph unicode="&#xe90a;" glyph-name="Icon-011" d="M768 149.333v42.667h42.667v-42.667h-42.667zM469.333 405.333v85.333h85.333v-85.333h-85.333zM213.333 704v42.667h42.667v-42.667h-42.667zM810.155 234.667c-2.475 35.925-14.080 97.323-61.568 149.248-36.736 40.064-87.595 65.92-151.253 77.739v41.472l84.907 84.949c12.757-7.509 27.349-12.075 43.093-12.075 47.104 0 85.333 38.229 85.333 85.333s-38.229 85.333-85.333 85.333c-47.104 0-85.333-38.229-85.333-85.333 0-15.787 4.565-30.379 12.075-43.051l-84.907-84.949h-140.501v-54.187c-48.085 10.795-87.253 30.507-114.816 61.056-36.096 39.851-46.848 88.747-49.835 121.131h36.651v128h-128v-128h48.256c2.987-38.741 15.573-98.987 60.843-149.333 35.755-39.723 85.163-65.408 146.901-77.355v-41.813l-84.907-84.907c-12.672 7.509-27.264 12.075-43.093 12.075-47.104 0-85.333-38.229-85.333-85.333s38.229-85.333 85.333-85.333c47.104 0 85.333 38.229 85.333 85.333 0 15.787-4.565 30.379-12.075 43.093l84.907 84.907h140.501v54.613c50.091-10.752 90.837-30.72 119.509-61.824 37.76-40.96 47.915-90.795 50.475-120.789h-41.984v-128h128v128h-43.179z" />
<glyph unicode="&#xe90b;" glyph-name="Icon-012" d="M351.627 643.669l-35.328-35.328h-85.291l-17.664 17.664 120.619 120.661 17.664-17.664v-85.333zM816.693 324.352l-120.661 120.661-60.331-60.331-244.352 244.224c1.749 4.779 2.944 9.685 2.944 14.763v85.333c0 11.264-4.48 22.187-12.459 30.165l-17.707 17.664c-8.021 8.021-18.859 12.501-30.165 12.501s-22.187-4.48-30.208-12.501l-120.576-120.661c-16.683-16.683-16.683-43.648 0-60.331l17.664-17.664c7.979-8.021 18.859-12.501 30.165-12.501h85.291c5.12 0 10.069 1.237 14.763 2.987l244.309-244.309-60.331-60.331 120.661-120.704c120.661-60.331 180.992 0 180.992 0s60.331 60.331 0 181.035v0z" />
<glyph unicode="&#xe90c;" glyph-name="Icon-013" d="M640 575.979v42.667h64v-42.667h-64zM580.437 447.979h187.563v256h-512v-256h16.896c-16.555-12.373-28.885-26.709-34.475-42.667h-25.088v341.333h597.333v-341.333h-195.755c-5.675 15.957-17.92 30.293-34.475 42.667v0zM426.667 575.979c0 47.104 38.229 85.333 85.333 85.333s85.333-38.229 85.333-85.333c0-47.104-38.229-85.333-85.333-85.333s-85.333 38.229-85.333 85.333v0zM320 575.979v42.667h64v-42.667h-64zM426.667 319.979c-85.504 0-149.333 33.792-149.333 64s63.829 64 149.333 64c85.419 0 149.333-33.792 149.333-64s-63.915-64-149.333-64v0zM426.667 234.645c-85.504 0-149.333 33.792-149.333 64 0 4.864 2.176 9.813 5.333 14.72 34.901-22.059 85.76-36.053 144-36.053s109.013 13.995 144 36.053c3.072-4.907 5.333-9.856 5.333-14.72 0-30.208-63.915-64-149.333-64v0zM426.667 149.312c-85.504 0-149.333 33.792-149.333 64 0 4.864 2.176 9.813 5.333 14.72 34.901-22.059 85.76-36.053 144-36.053s109.013 13.995 144 36.053c3.072-4.907 5.333-9.856 5.333-14.72 0-30.208-63.915-64-149.333-64v0zM853.333 362.645v426.667h-682.667v-426.667h67.755c2.56-7.424 6.656-14.549 11.819-21.333-9.984-13.013-15.573-27.392-15.573-42.667s5.589-29.653 15.573-42.667c-9.984-13.013-15.573-27.392-15.573-42.667 0-59.819 84.352-106.667 192-106.667s192 46.848 192 106.667c0 15.275-5.675 29.653-15.573 42.667 9.899 13.013 15.573 27.392 15.573 42.667s-5.675 29.653-15.573 42.667c5.163 6.784 9.173 13.909 11.819 21.333h238.421z" />
<glyph unicode="&#xe90d;" glyph-name="Icon-014" d="M512 149.333c-70.699 0-128 57.259-128 128 0 7.253 0.981 14.336 2.133 21.333 10.24-60.501 62.507-106.667 125.867-106.667s115.627 46.165 125.867 106.667c1.152-6.997 2.133-14.080 2.133-21.333 0-70.741-57.301-128-128-128v0zM469.333 533.333h42.667v42.667h-42.667v42.667h42.667v42.667h-42.667v42.667c0 23.509 19.157 42.667 42.667 42.667s42.667-19.157 42.667-42.667v-213.333h-85.333v42.667zM597.333 424.32v279.68c0 46.933-38.4 85.333-85.333 85.333s-85.333-38.4-85.333-85.333v-279.68c-50.773-29.568-85.333-83.968-85.333-146.987 0-94.251 76.416-170.667 170.667-170.667s170.667 76.416 170.667 170.667c0 63.019-34.56 117.419-85.333 146.987v0z" />
<glyph unicode="&#xe90e;" glyph-name="Icon-015" d="M822.514 151.742c70.581 18.964 72.902 266.935 72.902 296.258s-2.321 277.294-72.902 296.258c-2.648 1.118-5.458 1.825-8.553 1.825h-605.092c-3.095 0-5.905-0.707-8.553-1.825-70.579-18.964-72.901-266.935-72.901-296.258s2.321-277.294 72.902-296.258c2.648-1.118 5.458-1.825 8.553-1.825h605.090c3.097-0.002 5.907 0.707 8.553 1.825zM854.69 448c0-153.216-25.292-240.479-40.727-258.626-15.437 18.147-40.729 105.41-40.729 258.626s25.292 240.479 40.727 258.626c15.437-18.147 40.729-105.41 40.729-258.626zM168.145 448c0 164.171 29.039 252.59 40.727 260.823h561.635c-36.492-74.483-37.999-237.424-37.999-260.823s1.506-186.34 37.999-260.823h-559.069c-14.988 10.656-43.292 98.591-43.292 260.823z" />
<glyph unicode="&#xe90f;" glyph-name="Icon-016" d="M597.333 618.667v128h-170.667v-128h-256v-512h682.667v512h-256zM810.667 149.333h-597.333v384h213.333c0-23.467 19.2-42.667 42.667-42.667h85.333c23.467 0 42.667 19.2 42.667 42.667h213.333v-384zM469.333 533.333v170.667h85.333v-170.667h-85.333zM403.541 317.21c-19.627 8.192-24.277 11.093-24.277 11.093l-0.171 18.773c0 0 7.339 5.717 9.6 23.424 4.608-1.323 9.472 6.869 9.728 11.221 0.256 4.139-0.683 15.616-6.272 14.507 1.152 8.747 2.005 16.469 1.579 20.693-1.493 15.104-16.384 31.061-39.296 31.061s-37.845-15.957-39.253-31.061c-0.427-4.224 0.384-11.947 1.536-20.693-5.589 1.109-6.528-10.368-6.272-14.507 0.299-4.352 5.12-12.544 9.728-11.221 2.261-17.707 9.643-23.424 9.643-23.424l-0.171-18.773c0 0-4.651-2.901-24.32-11.093-19.669-8.107-39.509-13.909-45.397-23.083-5.291-8.277-3.669-27.819-3.669-27.819h196.352c0 0 1.621 19.541-3.712 27.819-5.888 9.173-25.728 14.976-45.355 23.083zM512 362.667h170.667v42.667h-170.667v-42.667zM725.333 362.667h42.667v42.667h-42.667v-42.667zM512 277.333h128v42.667h-128v-42.667zM682.667 277.333h85.333v42.667h-85.333v-42.667z" />
<glyph unicode="&#xe910;" glyph-name="Icon-017" d="M170.667 149.291v426.667h682.667v-426.667h-682.667zM213.376 191.957h597.333v341.333h-597.333v-341.333zM640.043 362.624h128v128h-128v-128zM213.333 618.624h597.333v42.667h-597.333v-42.667zM256 703.957h512.043v42.709h-512.043v-42.709zM298.709 362.624h170.709v42.667h-170.709v-42.667zM298.709 277.291h256v42.667h-256v-42.667z" />
<glyph unicode="&#xe911;" glyph-name="Icon-018" d="M597.333 629.333c-42.667 42.667 85.333 85.333 85.333 128s-85.333 42.667-170.667 0c-85.333 42.667-170.667 42.667-170.667 0s128-85.333 85.333-128c-42.667-42.667-213.333-128-213.333-341.333s36.907-170.667 298.667-170.667c250.24 0 298.667-36.907 298.667 170.667 0 213.333-170.667 298.667-213.333 341.333zM533.333 378.667c27.819 0 69.333-18.475 69.333-69.333v-42.667c0-50.859-41.515-69.333-69.333-69.333h-16v-16c0-14.72-11.989-26.667-26.667-26.667-14.763 0-26.667 11.947-26.667 26.667v16h-58.667c-14.763 0-26.667 11.947-26.667 26.667s11.904 26.667 26.667 26.667h58.667v74.667h-16c-27.904 0-69.333 18.475-69.333 69.333v42.667c0 50.859 41.429 69.333 69.333 69.333h16v16c0 14.72 11.904 26.667 26.667 26.667 14.677 0 26.667-11.947 26.667-26.667v-16h58.667c14.677 0 26.667-11.947 26.667-26.667s-11.989-26.667-26.667-26.667h-58.667v-74.667h16zM517.333 250.667h16c14.336 0.384 16 9.301 16 16v42.667c0 6.699-1.664 15.616-16.171 16h-15.829v-74.667zM432 437.333v-42.667c0-6.699 1.664-15.616 16.085-16h15.915v74.667h-15.915c-14.421-0.384-16.085-9.301-16.085-16z" />
<glyph unicode="&#xe912;" glyph-name="Icon-019" d="M702.498 547.925c-25.003-25.003-65.493-25.003-90.496 0s-25.003 65.493 0 90.496c25.003 25.003 65.493 25.003 90.496 0s25.003-65.493 0-90.496zM581.837 427.264c-25.003-25.003-65.493-25.003-90.496 0s-25.088 65.493 0 90.496c25.003 25.003 65.493 25.003 90.496 0s25.003-65.493 0-90.496zM708.002 740.821c-44.501-14.805-108.075-54.144-141.269-87.296l-180.992-181.035c-16.555-16.555-16.555-43.733 0-60.331l90.496-90.496c16.597-16.555 43.776-16.555 60.331 0l181.035 180.992c33.152 33.195 72.491 96.768 87.296 141.355l48.427 145.323-145.323-48.512zM264.998 412.177l150.912 150.827c-33.237 33.152-87.509 33.152-120.661 0l-90.581-90.496c-16.597-16.597-16.597-43.733 0-60.331s43.733-16.597 60.331 0zM476.25 201.007c-16.597-16.597-16.597-43.733 0-60.331s43.733-16.597 60.331 0l90.496 90.496c33.152 33.152 33.152 87.509 0 120.661l-150.827-150.827zM340.416 366.925c-8.235-8.32-8.235-21.931 0-30.165l60.416-60.331c8.235-8.32 21.845-8.32 30.165 0l15.104 15.061-90.581 90.539-15.104-15.104zM170.667 106.675c85.333 42.667 213.333 128 170.667 170.667s-128-85.333-170.667-170.667z" />
<glyph unicode="&#xe913;" glyph-name="Icon-020" d="M498.389 746.667l120.533-95.147v88.021h85.333v-153.259l124.288-91.349-47.189-67.883-34.432 27.093v-311.979h-469.333v311.979l-45.269-27.093-61.653 67.883 327.723 251.733zM405.589 184.875h170.709v213.333h-170.709v-213.333z" />
<glyph unicode="&#xe914;" glyph-name="Icon-021" d="M513.331 405.333c22.741 0 41.344 19.157 41.344 42.667v256c0 23.424-18.603 42.667-41.344 42.667s-41.344-19.243-41.344-42.667v-256c0-23.509 18.603-42.667 41.344-42.667zM640 674.833v-99.925c51.499-38.997 85.333-100.139 85.333-169.557 0-117.675-95.659-213.333-213.333-213.333-117.589 0-213.333 95.659-213.333 213.333 0 71.893 36.011 135.296 90.667 173.995v98.091c-103.68-46.848-176-150.955-176-272.085 0-165.035 133.76-298.667 298.667-298.667 164.992 0 298.667 133.632 298.667 298.667 0 119.083-69.845 221.568-170.667 269.483z" />
<glyph unicode="&#xe915;" glyph-name="Icon-022" d="M384 789.333h298.624v-256h-127.957v-42.667h170.624v-128h128.043v-256h-298.667v256h127.957v85.333h-341.333v-85.333h128.043v-256h-298.667v256h127.957v128h213.376v42.667h-128v256zM426.667 704h213.291v42.667h-213.291v-42.667zM597.291 277.291h213.333v42.709h-213.333v-42.709zM213.291 277.291h213.333v42.709h-213.333v-42.709z" />
<glyph unicode="&#xe916;" glyph-name="Icon-023" d="M767.232 611.072c0.171 2.56 0.768 4.992 0.768 7.595 0 67.157-51.925 121.643-117.675 126.976-23.509 26.581-57.429 43.691-95.659 43.691-45.568 0-85.248-23.893-107.947-59.733-18.603 10.539-39.808 17.067-62.72 17.067-70.741 0-128-57.301-128-128 0-2.603 0.597-5.035 0.768-7.595-50.005-17.408-86.101-64.427-86.101-120.405 0-70.699 57.259-128 128-128 23.424 0 45.099 6.741 64 17.749 18.859-11.008 40.576-17.749 64-17.749 15.019 0 29.227 3.072 42.667 7.851v-221.184h-42.667v-42.667h170.667v42.667h-42.667v213.333c7.296 0 14.336 0.981 21.333 2.176 6.997-1.195 13.995-2.176 21.333-2.176 23.381 0 45.056 6.741 64 17.749 18.901-11.008 40.576-17.749 64-17.749 70.699 0 128 57.301 128 128 0 55.979-36.096 102.997-86.101 120.405z" />
<glyph unicode="&#xe917;" glyph-name="Icon-024" d="M679.851 429.397l171.051-304.128c5.76-10.24 0.853-18.603-10.837-18.603h-341.333c-11.733 0-16.64 8.363-10.88 18.603l171.051 304.128c5.76 10.24 15.189 10.24 20.949 0zM648.064 234.667h42.667v128h-42.667v-128zM768 789.333h-512c-47.104 0-85.333-38.272-85.333-85.333v-512c0-47.061 38.229-85.333 85.333-85.333h170.667v42.667h-170.667c-23.424 0-42.667 19.2-42.667 42.667v384h597.333v-256h42.667v384c0 47.061-38.229 85.333-85.333 85.333zM810.667 618.667h-597.333v85.333c0 23.467 19.243 42.667 42.667 42.667h512c23.509 0 42.667-19.2 42.667-42.667v-85.333zM309.333 714.667c-17.664 0-32-14.336-32-32s14.336-32 32-32c17.664 0 32 14.336 32 32s-14.336 32-32 32zM394.667 714.667c-17.664 0-32-14.336-32-32s14.336-32 32-32c17.664 0 32 14.336 32 32s-14.336 32-32 32zM480 714.667c-17.664 0-32-14.336-32-32s14.336-32 32-32c17.664 0 32 14.336 32 32s-14.336 32-32 32z" />
<glyph unicode="&#xe918;" glyph-name="Icon-025" d="M646.673 213.918l-80.512 80.427-53.589-53.589 134.101-134.101 206.677 206.635-53.632 53.675-153.045-153.045zM768 789.333h-512c-47.104 0-85.333-38.272-85.333-85.333v-512c0-47.061 38.229-85.333 85.333-85.333h213.333v42.667h-213.333c-23.424 0-42.667 19.2-42.667 42.667v384h597.333v-128h42.667v256c0 47.061-38.229 85.333-85.333 85.333zM810.667 618.667h-597.333v85.333c0 23.467 19.243 42.667 42.667 42.667h512c23.509 0 42.667-19.2 42.667-42.667v-85.333zM309.333 714.667c-17.664 0-32-14.336-32-32s14.336-32 32-32c17.664 0 32 14.336 32 32s-14.336 32-32 32zM394.667 714.667c-17.664 0-32-14.336-32-32s14.336-32 32-32c17.664 0 32 14.336 32 32s-14.336 32-32 32zM480 714.667c-17.664 0-32-14.336-32-32s14.336-32 32-32c17.664 0 32 14.336 32 32s-14.336 32-32 32z" />
<glyph unicode="&#xe919;" glyph-name="Icon-026" d="M512 618.667c47.147 0 85.333 38.229 85.333 85.333s-38.187 85.333-85.333 85.333c-47.147 0-85.333-38.229-85.333-85.333s38.187-85.333 85.333-85.333zM768 448h-512c-23.467 0-42.667-19.2-42.667-42.667s19.2-42.667 42.667-42.667h128l42.667-256h170.667l42.667 256h128c23.467 0 42.667 19.2 42.667 42.667s-19.2 42.667-42.667 42.667zM597.333 618.667h-42.667l-42.667-85.333-42.667 85.333h-42.667c-70.4 0-128-57.6-128-128h426.667c0 70.4-57.6 128-128 128z" />
<glyph unicode="&#xe91a;" glyph-name="Icon-027" d="M384 522.667c-29.397 0-53.333 23.936-53.333 53.333s23.936 53.333 53.333 53.333c29.397 0 53.333-23.936 53.333-53.333s-23.936-53.333-53.333-53.333v0zM497.365 704h-241.365v-241.365l301.696-301.696 241.408 241.365-301.739 301.696z" />
<glyph unicode="&#xe91b;" glyph-name="Icon-028" d="M768 704h85.333v-597.333h-640v597.333h85.333v64c0 11.733 9.557 21.333 21.333 21.333h85.333c11.776 0 21.333-9.6 21.333-21.333v-64h213.333v64c0 11.733 9.557 21.333 21.333 21.333h85.333c11.776 0 21.333-9.6 21.333-21.333v-64zM256 149.333h554.667v426.667h-554.667v-426.667zM426.667 448h85.333v85.333h-85.333v-85.333zM554.667 448h85.333v85.333h-85.333v-85.333zM682.667 448h85.333v85.333h-85.333v-85.333zM298.667 320h85.333v85.333h-85.333v-85.333zM426.667 320h85.333v85.333h-85.333v-85.333zM554.667 320h85.333v85.333h-85.333v-85.333zM682.667 320h85.333v85.333h-85.333v-85.333zM298.667 192h85.333v85.333h-85.333v-85.333zM426.667 192h85.333v85.333h-85.333v-85.333zM554.667 192h85.333v85.333h-85.333v-85.333zM341.333 661.333h42.667v85.333h-42.667v-85.333zM682.667 661.333h42.667v85.333h-42.667v-85.333z" />
<glyph unicode="&#xe91c;" glyph-name="Icon-029" d="M490.667 192c-129.408 0-234.667 105.259-234.667 234.667s105.259 234.667 234.667 234.667c129.408 0 234.667-105.259 234.667-234.667s-105.259-234.667-234.667-234.667zM490.667 746.667c-176.683 0-320-143.317-320-320 0-176.768 143.317-320 320-320 176.768 0 320 143.232 320 320 0 176.683-143.232 320-320 320zM533.333 576h-85.333c-11.733 0-21.333-9.6-21.333-21.333v-256c0-11.733 9.6-21.333 21.333-21.333h85.333c11.733 0 21.333 9.6 21.333 21.333v256c0 11.733-9.6 21.333-21.333 21.333z" />
<glyph unicode="&#xe91d;" glyph-name="Icon-030" d="M745.703 593.075c-34.884 0.618-63.037 34.767-63.037 76.791 0 42.411 28.672 76.8 64 76.8s64-34.389 64-76.8c0-42.025-28.152-76.173-63.037-76.791h20.37c46.933 0 85.333-38.4 85.333-85.333v-85.333h-197.973c12.501 26.88 20.224 57.045 20.224 89.6 0 29.056-6.101 56.363-16.171 81.067h86.29zM341.333 669.867c0 42.411-28.672 76.8-64 76.8s-64-34.389-64-76.8c0-42.411 28.672-76.8 64-76.8s64 34.389 64 76.8zM341.333 511.991c0 29.099 6.101 56.363 16.171 81.067h-101.504c-46.933 0-85.333-38.4-85.333-85.333v-85.333h190.891c-12.459 26.88-20.224 57.088-20.224 89.6zM626.355 376.098c-9.387 2.219-18.987 3.627-29.013 3.627h-32.299c40.107 24.832 67.883 74.411 67.883 132.267 0 82.475-55.765 149.333-124.459 149.333-68.779 0-124.459-66.859-124.459-149.333 0-57.856 27.733-107.435 67.84-132.267h-25.173c-11.947 0-23.339-2.176-34.347-5.291-53.76-15.189-93.653-64.256-93.653-122.709v-85.333h426.667v85.333c0 60.373-42.496 111.104-98.987 124.373z" />
<glyph unicode="&#xe91e;" glyph-name="Icon-031" d="M554.667 618.667h-85.333c-46.933 0-85.333-38.4-85.333-85.333v-170.667h42.667v-256h170.667v256h42.667v170.667c0 46.933-38.4 85.333-85.333 85.333zM512 661.333c35.371 0 64 28.672 64 64s-28.629 64-64 64c-35.371 0-64-28.672-64-64s28.629-64 64-64zM768 618.667c23.595 0 42.667 19.115 42.667 42.667s-19.072 42.667-42.667 42.667c-23.595 0-42.667-19.115-42.667-42.667s19.072-42.667 42.667-42.667zM810.667 576h-85.333c-23.467 0-42.667-19.2-42.667-42.667v-170.667h42.667v-170.667h85.333v170.667h42.667v170.667c0 23.467-19.2 42.667-42.667 42.667zM256 618.667c23.595 0 42.667 19.115 42.667 42.667s-19.072 42.667-42.667 42.667c-23.595 0-42.667-19.115-42.667-42.667s19.072-42.667 42.667-42.667zM298.667 576h-85.333c-23.467 0-42.667-19.2-42.667-42.667v-170.667h42.667v-170.667h85.333v170.667h42.667v170.667c0 23.467-19.2 42.667-42.667 42.667z" />
<glyph unicode="&#xe91f;" glyph-name="Icon-032" d="M763.137 155.814l-112.939 338.816c-4.693 14.080-16.299 24.704-30.677 28.117s-29.525-0.939-39.979-11.349l-91.392-91.435-79.36 79.36 106.667 106.667c8.32 8.32 8.32 21.845 0 30.165l-15.104 15.061-135.296 132.011c-8.363 8.149-21.717 8.107-29.995-0.171l-30.123-30.080c-4.053-4.096-6.315-9.6-6.272-15.232 0.043-5.76 2.347-11.179 6.443-15.189l134.912-131.669-91.563-91.563 109.525-109.525-77.397-77.397c-10.453-10.411-14.763-25.515-11.349-39.936s13.995-25.984 28.032-30.635l338.901-113.024c7.637-2.56 16.128-0.555 21.803 5.163 5.717 5.675 7.723 14.165 5.163 21.845z" />
<glyph unicode="&#xe920;" glyph-name="Icon-033" d="M645.621 435.157l135.765 135.765c16.555 16.597 16.555 43.733 0 60.331l-60.416 60.331c-16.597 16.555-43.776 16.555-60.331 0l-135.765-135.765-135.765 135.765c-16.555 16.555-43.733 16.555-60.331 0l-60.331-60.331c-16.597-16.597-16.597-43.733 0-60.331l135.765-135.765-135.765-135.808c-16.597-16.555-16.597-43.733 0-60.331l60.331-60.288c16.597-16.555 43.776-16.555 60.331 0l135.765 135.723 135.765-135.723c16.555-16.555 43.733-16.555 60.416 0l60.331 60.288c16.555 16.597 16.555 43.776 0 60.331l-135.765 135.808z" />
<glyph unicode="&#xe921;" glyph-name="Icon-034" d="M213.333 661.333v42.667h42.667v-42.667h-42.667zM213.333 149.333v42.667h42.667v-42.667h-42.667zM277.333 746.667h-85.333c-11.733 0-21.333-9.6-21.333-21.333v-597.333c0-11.733 9.6-21.333 21.333-21.333h85.333c11.733 0 21.333 9.6 21.333 21.333v597.333c0 11.733-9.6 21.333-21.333 21.333zM661.333 490.667c11.733 0 21.333-9.6 21.333-21.333v-341.333c0-11.733-9.6-21.333-21.333-21.333h-42.667c-11.733 0-21.333 9.6-21.333 21.333v341.333c0 11.733 9.6 21.333 21.333 21.333h42.667zM832 533.333c11.733 0 21.333-9.6 21.333-21.333v-384c0-11.733-9.6-21.333-21.333-21.333h-85.333c-11.733 0-21.333 9.6-21.333 21.333v384c0 11.733 9.6 21.333 21.333 21.333h85.333zM768 448h42.667v42.667h-42.667v-42.667zM768 149.333h42.667v42.667h-42.667v-42.667zM533.333 618.667c11.733 0 21.333-9.6 21.333-21.333v-469.333c0-11.733-9.6-21.333-21.333-21.333h-170.667c-11.733 0-21.333 9.6-21.333 21.333v469.333c0 11.733 9.6 21.333 21.333 21.333h170.667zM384 490.667h128v42.667h-128v-42.667zM384 192h128v42.667h-128v-42.667z" />
<glyph unicode="&#xe922;" glyph-name="Icon-035" d="M249.472 221.44l-78.805-84.608 30.165-30.165 81.963 76.331c447.232-146.304 570.539 229.76 570.539 606.336-250.923-209.067-706.347-90.752-603.861-567.893zM436.907 364.8c0-9.387-1.707-17.138-5.12-23.253s-8.107-10.951-14.080-14.507c-5.973-3.556-13.084-6.044-21.333-7.467s-17.209-2.133-26.88-2.133c-7.68 0-14.578 0.284-20.693 0.853s-12.729 1.28-19.84 2.133v152.533c5.404 0.853 11.307 1.564 17.707 2.133s13.867 0.853 22.4 0.853c8.107 0 15.68-0.676 22.72-2.027s13.191-3.627 18.453-6.827c5.262-3.2 9.422-7.467 12.48-12.8s4.587-12.053 4.587-20.16c0-6.684-1.493-12.764-4.48-18.24s-6.756-9.707-11.307-12.693c3.271-1.28 6.436-2.951 9.493-5.013s5.76-4.622 8.107-7.68c2.347-3.058 4.231-6.72 5.653-10.987s2.133-9.173 2.133-14.72zM365.867 384.427v-35.84c0.996-0.142 2.24-0.249 3.733-0.32s3.449-0.107 5.867-0.107c2.702 0 5.44 0.284 8.213 0.853s5.298 1.529 7.573 2.88c2.276 1.351 4.089 3.2 5.44 5.547s2.027 5.298 2.027 8.853c0 6.827-2.24 11.556-6.72 14.187s-10.276 3.947-17.387 3.947h-8.747zM365.867 414.72h5.973c6.116 0 10.88 1.244 14.293 3.733s5.12 6.791 5.12 12.907c0 2.987-0.604 5.476-1.813 7.467s-2.738 3.556-4.587 4.693c-1.849 1.138-3.911 1.92-6.187 2.347s-4.48 0.64-6.613 0.64h-3.093c-1.209 0-2.24-0.071-3.093-0.213v-31.573zM469.12 473.387h90.027c0.569-3.129 0.996-6.044 1.28-8.747s0.427-5.262 0.427-7.68c0-4.693-0.569-10.311-1.707-16.853h-52.267v-26.027h41.173c1.28-6.4 1.92-11.947 1.92-16.64 0-4.836-0.64-10.453-1.92-16.853h-41.173v-59.947c-7.538-1.28-13.796-1.92-18.773-1.92-5.262 0-11.591 0.64-18.987 1.92v152.747zM626.56 396.373c0-30.151 12.658-45.227 37.973-45.227 4.551 0 8.853 0.427 12.907 1.28s8.996 2.276 14.827 4.267c4.693-10.24 7.822-20.764 9.387-31.573-4.124-1.564-7.964-2.844-11.52-3.84s-6.969-1.742-10.24-2.24c-3.271-0.498-6.507-0.853-9.707-1.067s-6.507-0.32-9.92-0.32c-12.089 0-22.72 1.956-31.893 5.867s-16.853 9.351-23.040 16.32c-6.187 6.969-10.844 15.289-13.973 24.96s-4.693 20.195-4.693 31.573c0 11.378 1.636 21.938 4.907 31.68s8 18.169 14.187 25.28c6.187 7.111 13.831 12.658 22.933 16.64s19.413 5.973 30.933 5.973c6.827 0 13.298-0.498 19.413-1.493s12.942-2.987 20.48-5.973c-0.284-5.831-1.351-11.484-3.2-16.96s-3.769-10.276-5.76-14.4c-2.844 0.996-5.44 1.849-7.787 2.56s-4.587 1.28-6.72 1.707c-2.133 0.427-4.267 0.747-6.4 0.96s-4.409 0.32-6.827 0.32c-11.52 0-20.444-3.876-26.773-11.627s-9.493-19.307-9.493-34.667z" />
<glyph unicode="&#xe923;" glyph-name="Icon-036" d="M801.408 426.667c31.317 19.413 51.925 50.261 51.925 85.333 0 58.923-57.301 106.667-128 106.667-3.115 0-6.528-0.512-9.856-0.896 6.144 16 9.856 30.891 9.856 43.563 0 70.656-47.744 128-106.667 128-35.072 0-65.92-20.565-85.333-51.925-19.456 31.36-50.261 51.925-85.333 51.925-58.923 0-106.667-57.344-106.667-128 0-12.672 3.669-27.563 9.856-43.563-3.371 0.384-6.741 0.896-9.856 0.896-70.699 0-128-47.744-128-106.667 0-35.072 20.565-65.92 51.925-85.333-31.36-19.413-51.925-50.261-51.925-85.333 0-58.923 57.301-106.667 128-106.667 43.733 0 128 0 162.859 89.259l50.475-217.259h85.333l-87.083 226.987c47.616-50.133 125.653-98.987 172.416-98.987 70.699 0 128 47.744 128 106.667 0 35.072-20.608 65.92-51.925 85.333z" />
<glyph unicode="&#xe924;" glyph-name="Icon-037" d="M640.183 138.837l-0.213 0.171v-32.341h85.333v117.333l-85.12-85.163zM170.667 789.333v-682.667h213.333v85.333h-128v512h238.336l121.984-122.027 60.331 60.373-146.987 146.987h-358.997zM426.667 149.325h128l-128 128v-128zM469.342 320.009l128-128.043 256 256.043-128.043 127.957-255.957-255.957z" />
<glyph unicode="&#xe925;" glyph-name="Icon-038" d="M512 299.52l-128-61.568v421.931l128 61.568v-421.931zM341.333 237.952l-128 61.568v421.931l128-61.568v-421.931zM554.667 721.451l128-61.568v-175.275c13.739 3.584 27.819 6.059 42.667 6.059v196.096l-192 92.331-170.667-82.091-192 92.331v-516.693l192-92.331 170.667 82.091 21.333-10.283v469.333zM725.333 448.021c-70.656 0-128-57.301-128-128 0-48.597 27.349-90.283 67.157-112l60.843-101.333 60.843 101.333c39.808 21.717 67.157 63.403 67.157 112 0 70.699-57.259 128-128 128zM725.333 277.355c-23.595 0-42.667 19.072-42.667 42.667s19.072 42.667 42.667 42.667c23.595 0 42.667-19.072 42.667-42.667s-19.072-42.667-42.667-42.667z" />
<glyph unicode="&#xe926;" glyph-name="Icon-039" d="M564.992 320v42.667h213.333v-42.667h-213.333zM650.325 234.667v42.667h42.667v-42.667h-42.667zM650.325 405.333v42.667h42.667v-42.667h-42.667zM554.667 576v42.667h213.333v-42.667h-213.333zM469.333 576h-85.333v-85.333h-42.667v85.333h-85.333v42.667h85.333v85.333h42.667v-85.333h85.333v-42.667zM449.067 264.875l-42.24-42.283-60.331 60.373-60.331-60.331-42.24 42.24 60.331 60.331-60.331 60.331 42.24 42.24 60.331-60.331 60.331 60.331 42.24-42.24-60.331-60.331 60.331-60.331zM768 789.333h-512c-46.933 0-85.333-38.4-85.333-85.333v-512c0-46.933 38.4-85.333 85.333-85.333h512c46.933 0 85.333 38.4 85.333 85.333v512c0 46.933-38.4 85.333-85.333 85.333v0z" />
<glyph unicode="&#xe927;" glyph-name="Icon-040" d="M454.885 413.971c35.261-34.812 57.115-83.173 57.115-136.638 0-106.039-85.961-192-192-192s-192 85.961-192 192c0 106.039 85.961 192 192 192 19.89 0 39.073-3.024 57.115-8.638-35.261 34.812-57.115 83.173-57.115 136.638 0 106.039 85.961 192 192 192s192-85.961 192-192c0-53.465-21.853-101.826-57.115-136.638 18.042 5.614 37.225 8.638 57.115 8.638 106.039 0 192-85.961 192-192s-85.961-192-192-192c-106.039 0-192 85.961-192 192 0 53.465 21.853 101.826 57.115 136.638-18.042-5.614-37.225-8.638-57.115-8.638s-39.073 3.024-57.115 8.638zM320 128c82.475 0 149.333 66.859 149.333 149.333s-66.859 149.333-149.333 149.333c-82.475 0-149.333-66.859-149.333-149.333s66.859-149.333 149.333-149.333zM320 170.667c58.91 0 106.667 47.756 106.667 106.667s-47.756 106.667-106.667 106.667c-58.91 0-106.667-47.756-106.667-106.667s47.756-106.667 106.667-106.667zM704 128c82.475 0 149.333 66.859 149.333 149.333s-66.859 149.333-149.333 149.333c-82.475 0-149.333-66.859-149.333-149.333s66.859-149.333 149.333-149.333zM704 170.667c58.91 0 106.667 47.756 106.667 106.667s-47.756 106.667-106.667 106.667c-58.91 0-106.667-47.756-106.667-106.667s47.756-106.667 106.667-106.667zM512 448c82.475 0 149.333 66.859 149.333 149.333s-66.859 149.333-149.333 149.333c-82.475 0-149.333-66.859-149.333-149.333s66.859-149.333 149.333-149.333zM512 490.667c58.91 0 106.667 47.756 106.667 106.667s-47.756 106.667-106.667 106.667c-58.91 0-106.667-47.756-106.667-106.667s47.756-106.667 106.667-106.667z" />
</font>
</defs>
</svg>
