<svg width="26" height="26" viewBox="0 0 26 26" xmlns="http://www.w3.org/2000/svg">
<path d="m 10.588388,11.294194 0,-4.7499996 6,0 5,4.9999996 0,10 -11,0 0,-4.75" transform="" style="opacity: 1; fill: none; fill-opacity: 1; stroke: #000000; stroke-width: 1; stroke-linecap: round; stroke-linejoin: round; stroke-miterlimit: 4; stroke-dasharray: none; stroke-dashoffset: 0; stroke-opacity: 1;" />
<path d="M 6.007812,3.5 C 5.872512,3.49793 5.742144,3.550774 5.646484,3.6464844 l -2.5,2.5 C 2.831705,6.4614814 3.054681,6.999826 3.5,7 L 5,7 c 0,3.571668 2.73748,6.766699 6.09375,7.988281 0.950637,0.346004 2.122402,0.494141 2.90625,0.494141 0.783848,0 0.71844,-1.000021 0,-1 -0.71844,2.1e-5 -1.72511,-0.130051 -2.564453,-0.435547 C 8.471092,12.967902 7,10.154707 7,7 L 8.5,7 C 8.945316,6.999826 9.168295,6.4614814 8.853516,6.1464844 l -2.5,-2.5 C 6.261683,3.5546094 6.1377,3.5021 6.007812,3.5 Z" transform="" style="opacity: 1; fill: #000000; fill-opacity: 1; stroke: none; stroke-width: 0.99999994px; stroke-linecap: round; stroke-linejoin: miter; stroke-miterlimit: 4; stroke-dasharray: none; stroke-dashoffset: 0; stroke-opacity: 1;" />
</svg>