<svg width="26" height="26" viewBox="0 0 26 26" xmlns="http://www.w3.org/2000/svg">
<path d="m 10.588388,11.294194 0,-4.7499996 6,0 5,4.9999996 0,10 -11,0 0,-4.75" transform="" style="opacity: 1; fill: none; fill-opacity: 1; stroke: #000000; stroke-width: 1; stroke-linecap: round; stroke-linejoin: round; stroke-miterlimit: 4; stroke-dasharray: none; stroke-dashoffset: 0; stroke-opacity: 1;" />
<path d="m 16.482422,13.991333 c 0.0021,0.135301 -0.05077,0.265668 -0.146484,0.361328 l -2.5,2.5 c -0.314997,0.314779 -0.853342,0.0918 -0.853516,-0.353516 l 0,-1.5 c -3.571668,0 -6.766699,-2.737479 -7.988281,-6.0937485 C 4.648137,7.9547595 4.5,6.7829945 4.5,5.9991465 c 0,-0.783848 1.000021,-0.71844 1,0 -2.1e-5,0.71844 0.130051,1.72511 0.435547,2.564453 1.078973,2.9644545 3.892168,4.4355455 7.046875,4.4355455 l 0,-1.499999 c 1.73e-4,-0.445316 0.538519,-0.668294 0.853516,-0.353515 l 2.5,2.499999 c 0.09187,0.09183 0.144384,0.215815 0.146484,0.345703 z" transform="" style="opacity: 1; fill: #000000; fill-opacity: 1; stroke: none; stroke-width: 0.99999994px; stroke-linecap: round; stroke-linejoin: miter; stroke-miterlimit: 4; stroke-dasharray: none; stroke-dashoffset: 0; stroke-opacity: 1;" />
</svg>